<svg width="76" height="26" viewBox="0 0 76 26" fill="none" xmlns="http://www.w3.org/2000/svg">
<path d="M0.0170455 10L1.46591 1.27273H3.83523L3.27273 4.68182H6.40909L6.97159 1.27273H9.34091L7.89205 10H5.52273L6.08523 6.59091H2.94886L2.38636 10H0.0170455ZM9.05114 10L10.142 3.45455H12.4943L11.4034 10H9.05114ZM11.4205 2.77273C11.1023 2.77273 10.8452 2.66761 10.6491 2.45739C10.4531 2.24432 10.3807 1.99148 10.4318 1.69886C10.483 1.40057 10.6392 1.14773 10.9006 0.940341C11.1619 0.730114 11.4517 0.625 11.7699 0.625C12.0909 0.625 12.3466 0.730114 12.5369 0.940341C12.7273 1.14773 12.7983 1.40057 12.75 1.69886C12.7045 1.99148 12.5511 2.24432 12.2898 2.45739C12.0313 2.66761 11.7415 2.77273 11.4205 2.77273ZM6.22585 16.2727L4.77699 25H2.40767L3.85653 16.2727H6.22585ZM10.1314 25.1023C9.71662 25.1023 9.36009 25.0341 9.06179 24.8977C8.76634 24.7585 8.55043 24.5483 8.41406 24.267C8.28054 23.983 8.25071 23.625 8.32457 23.1932C8.38423 22.8352 8.49645 22.5298 8.66122 22.277C8.82599 22.0241 9.03054 21.8168 9.27486 21.6548C9.51918 21.4929 9.79332 21.3693 10.0973 21.2841C10.4041 21.196 10.728 21.1392 11.0689 21.1136C11.4382 21.0852 11.7379 21.0497 11.968 21.0071C12.1982 20.9645 12.37 20.9062 12.4837 20.8324C12.5973 20.7585 12.6655 20.6591 12.6882 20.5341V20.517C12.7138 20.3466 12.6683 20.2159 12.5518 20.125C12.4382 20.0341 12.2791 19.9886 12.0746 19.9886C11.853 19.9886 11.6612 20.0369 11.4993 20.1335C11.3402 20.2301 11.2308 20.3807 11.1712 20.5852H9.00639C9.0973 20.1875 9.28338 19.821 9.56463 19.4858C9.84872 19.1477 10.2251 18.8778 10.6939 18.6761C11.1655 18.4716 11.728 18.3693 12.3814 18.3693C12.8473 18.3693 13.2564 18.4247 13.6087 18.5355C13.9609 18.6435 14.2521 18.7955 14.4822 18.9915C14.7152 19.1847 14.8786 19.4119 14.9723 19.6733C15.0689 19.9318 15.0916 20.2131 15.0405 20.517L14.2905 25H12.0916L12.245 24.0795H12.1939C12.0234 24.3239 11.8317 24.5213 11.6186 24.6719C11.4084 24.8224 11.1783 24.9318 10.9283 25C10.6811 25.0682 10.4155 25.1023 10.1314 25.1023ZM11.1541 23.6193C11.3303 23.6193 11.5036 23.5824 11.674 23.5085C11.8445 23.4347 11.9908 23.3281 12.1129 23.1889C12.2351 23.0497 12.3132 22.8807 12.3473 22.6818L12.4325 22.1364C12.37 22.1619 12.3004 22.1861 12.2237 22.2088C12.1499 22.2287 12.0717 22.2486 11.9893 22.2685C11.9098 22.2884 11.8246 22.3068 11.7337 22.3239C11.6456 22.3409 11.5547 22.358 11.4609 22.375C11.2734 22.4034 11.1158 22.4503 10.9879 22.5156C10.8601 22.5781 10.7607 22.6562 10.6896 22.75C10.6186 22.8409 10.5746 22.9432 10.5575 23.0568C10.532 23.2358 10.5732 23.375 10.6811 23.4744C10.7919 23.571 10.9496 23.6193 11.1541 23.6193ZM15.4315 25L16.5224 18.4545H18.7553L18.5508 19.6989H18.619C18.8207 19.2898 19.1062 18.9659 19.4755 18.7273C19.8448 18.4886 20.2582 18.3693 20.7156 18.3693C21.1729 18.3693 21.5479 18.4915 21.8406 18.7358C22.1332 18.9773 22.2809 19.2983 22.2837 19.6989H22.3519C22.5281 19.2983 22.8164 18.9773 23.217 18.7358C23.6175 18.4915 24.0621 18.3693 24.5508 18.3693C25.1729 18.3693 25.646 18.571 25.9698 18.9744C26.2965 19.3778 26.4031 19.9148 26.2894 20.5852L25.5565 25H23.2042L23.8519 21.1818C23.8917 20.8949 23.8519 20.6705 23.7326 20.5085C23.6133 20.3437 23.4315 20.2614 23.1871 20.2614C22.9457 20.2614 22.7411 20.3437 22.5735 20.5085C22.4087 20.6705 22.3065 20.8949 22.2667 21.1818L21.619 25H19.369L20.0167 21.1818C20.0565 20.8949 20.0167 20.6705 19.8974 20.5085C19.7781 20.3437 19.5962 20.2614 19.3519 20.2614C19.1928 20.2614 19.0479 20.2983 18.9173 20.3722C18.7894 20.446 18.6829 20.5526 18.5977 20.6918C18.5153 20.8281 18.4599 20.9915 18.4315 21.1818L17.7837 25H15.4315ZM30.147 16.2727H32.7891L33.897 19.8182H33.9822L36.2663 16.2727H38.9084L34.7152 22.2557L34.255 25H31.9027L32.3629 22.2557L30.147 16.2727ZM46.7759 20.7898C46.6168 21.7386 46.3015 22.5341 45.8299 23.1761C45.3583 23.8182 44.7859 24.3026 44.1126 24.6293C43.4393 24.956 42.7191 25.1193 41.9521 25.1193C41.1339 25.1193 40.4237 24.9418 39.8214 24.5866C39.2191 24.2315 38.7802 23.7116 38.5046 23.027C38.229 22.3423 38.1737 21.5057 38.3384 20.517C38.4918 19.5682 38.8043 18.7699 39.2759 18.1222C39.7475 17.4744 40.3228 16.9844 41.0018 16.652C41.6808 16.3196 42.4066 16.1534 43.1793 16.1534C43.9918 16.1534 44.6978 16.3324 45.2972 16.6903C45.8995 17.0483 46.337 17.5724 46.6097 18.2628C46.8853 18.9531 46.9407 19.7955 46.7759 20.7898ZM44.3896 20.517C44.4691 20.017 44.4748 19.5966 44.4066 19.2557C44.3384 18.9119 44.195 18.6534 43.9762 18.4801C43.7575 18.304 43.4634 18.2159 43.0941 18.2159C42.6737 18.2159 42.3015 18.3182 41.9776 18.5227C41.6538 18.7273 41.3853 19.0213 41.1722 19.4048C40.9592 19.7884 40.81 20.25 40.7248 20.7898C40.6339 21.2955 40.6254 21.7159 40.6992 22.0511C40.7759 22.3864 40.9265 22.6378 41.1509 22.8054C41.3782 22.973 41.6737 23.0568 42.0373 23.0568C42.4521 23.0568 42.8185 22.9574 43.1367 22.7585C43.4577 22.5597 43.7234 22.2713 43.9336 21.8935C44.1467 21.5156 44.2987 21.0568 44.3896 20.517ZM49.5639 25L51.0128 16.2727H53.3821L52.8196 19.6818H55.956L56.5185 16.2727H58.8878L57.4389 25H55.0696L55.6321 21.5909H52.4957L51.9332 25H49.5639ZM65.1776 16.2727H67.5469L66.6179 21.8636C66.5099 22.5284 66.2571 23.1037 65.8594 23.5895C65.4645 24.0724 64.9616 24.446 64.3509 24.7102C63.7401 24.9716 63.0611 25.1023 62.3139 25.1023C61.5611 25.1023 60.9247 24.9716 60.4048 24.7102C59.8849 24.446 59.5071 24.0724 59.2713 23.5895C59.0384 23.1037 58.9759 22.5284 59.0838 21.8636L60.0128 16.2727H62.3821L61.4872 21.6591C61.4446 21.929 61.4659 22.169 61.5511 22.3793C61.6364 22.5895 61.7741 22.7557 61.9645 22.8778C62.1548 22.9972 62.3849 23.0568 62.6548 23.0568C62.9276 23.0568 63.179 22.9972 63.4091 22.8778C63.642 22.7557 63.8352 22.5895 63.9886 22.3793C64.142 22.169 64.2401 21.929 64.2827 21.6591L65.1776 16.2727ZM69.4911 25H66.9343L71.2638 16.2727H74.5025L75.9343 25H73.3775L72.5252 18.6761H72.457L69.4911 25ZM69.5934 21.5568H74.4002L74.0934 23.3295H69.2866L69.5934 21.5568Z" fill="white"/>
</svg>
