<svg width="75" height="75" viewBox="0 0 75 75" fill="none" xmlns="http://www.w3.org/2000/svg">
<path d="M26.0946 11.9443C32.7603 16.8634 38.8359 30.7297 36.0946 34.4443C33.3534 38.159 19.427 24.3634 12.7613 19.4443C6.09554 14.5253 -1.64665 15.659 1.09461 11.9443C3.83587 8.22967 19.4289 7.02526 26.0946 11.9443Z" fill="#84C257"/>
<path d="M43.9086 15.0979C38.526 19.9429 33.779 31.8156 36.0898 34.3828C38.4006 36.9501 45.4507 30.6784 50.8333 25.8333C56.216 20.9883 66.7198 14.1554 64.4089 11.5882C62.0981 9.02097 49.2912 10.2529 43.9086 15.0979Z" fill="#84C252"/>
<g filter="url(#filter0_d_0_1)">
<path d="M14.9005 14.4562L20 17.5C20 17.5 27.5 23.3333 30.8333 26.6667C34.1667 30 35.4154 33.8009 35.4154 33.8009" stroke="#548442" stroke-linecap="square"/>
</g>
<g filter="url(#filter1_d_0_1)">
<path d="M53.4517 16.0488L49.5483 18.7775C49.5483 18.7775 44.0035 23.9719 41.6462 26.9254C39.2889 29.879 36.6667 34.1667 36.6667 34.1667" stroke="#548442" stroke-linecap="square"/>
</g>
<path d="M75 75C75 75 54.8773 75 34.1667 75C13.456 75 5 75 5 75C5 75 16.7893 60 37.5 60C58.2107 60 75 75 75 75Z" fill="#B56F3E"/>
<path d="M35.8321 33.2871L35.8321 63.3333" stroke="#548442"/>
<defs>
<filter id="filter0_d_0_1" x="10.2149" y="13.7706" width="29.8315" height="28.6614" filterUnits="userSpaceOnUse" color-interpolation-filters="sRGB">
<feFlood flood-opacity="0" result="BackgroundImageFix"/>
<feColorMatrix in="SourceAlpha" type="matrix" values="0 0 0 0 0 0 0 0 0 0 0 0 0 0 0 0 0 0 127 0" result="hardAlpha"/>
<feOffset dy="4"/>
<feGaussianBlur stdDeviation="2"/>
<feComposite in2="hardAlpha" operator="out"/>
<feColorMatrix type="matrix" values="0 0 0 0 0 0 0 0 0 0 0 0 0 0 0 0 0 0 0.25 0"/>
<feBlend mode="normal" in2="BackgroundImageFix" result="effect1_dropShadow_0_1"/>
<feBlend mode="normal" in="SourceGraphic" in2="effect1_dropShadow_0_1" result="shape"/>
</filter>
<filter id="filter1_d_0_1" x="31.9792" y="15.3526" width="26.1687" height="27.5015" filterUnits="userSpaceOnUse" color-interpolation-filters="sRGB">
<feFlood flood-opacity="0" result="BackgroundImageFix"/>
<feColorMatrix in="SourceAlpha" type="matrix" values="0 0 0 0 0 0 0 0 0 0 0 0 0 0 0 0 0 0 127 0" result="hardAlpha"/>
<feOffset dy="4"/>
<feGaussianBlur stdDeviation="2"/>
<feComposite in2="hardAlpha" operator="out"/>
<feColorMatrix type="matrix" values="0 0 0 0 0 0 0 0 0 0 0 0 0 0 0 0 0 0 0.25 0"/>
<feBlend mode="normal" in2="BackgroundImageFix" result="effect1_dropShadow_0_1"/>
<feBlend mode="normal" in="SourceGraphic" in2="effect1_dropShadow_0_1" result="shape"/>
</filter>
</defs>
</svg>
